<svg width="24" height="24" viewBox="0 0 24 24" fill="none" xmlns="http://www.w3.org/2000/svg">
<path d="M13.2992 3.14844L21.9332 18.1024C22.0648 18.3305 22.1341 18.5891 22.1341 18.8524C22.1341 19.1157 22.0648 19.3744 21.9332 19.6024C21.8015 19.8304 21.6122 20.0198 21.3842 20.1515C21.1561 20.2831 20.8975 20.3524 20.6342 20.3524H3.36617C3.10287 20.3524 2.84421 20.2831 2.61619 20.1515C2.38816 20.0198 2.19881 19.8304 2.06716 19.6024C1.93552 19.3744 1.86621 19.1157 1.86621 18.8524C1.86621 18.5891 1.93552 18.3305 2.06717 18.1024L10.7012 3.14844C11.2782 2.14844 12.7212 2.14844 13.2992 3.14844ZM12.0002 4.89844L4.23217 18.3524H19.7682L12.0002 4.89844ZM12.0002 15.0004C12.2654 15.0004 12.5197 15.1058 12.7073 15.2933C12.8948 15.4809 13.0002 15.7352 13.0002 16.0004C13.0002 16.2657 12.8948 16.52 12.7073 16.7075C12.5197 16.8951 12.2654 17.0004 12.0002 17.0004C11.735 17.0004 11.4806 16.8951 11.2931 16.7075C11.1055 16.52 11.0002 16.2657 11.0002 16.0004C11.0002 15.7352 11.1055 15.4809 11.2931 15.2933C11.4806 15.1058 11.735 15.0004 12.0002 15.0004ZM12.0002 8.00044C12.2654 8.00044 12.5197 8.10579 12.7073 8.29333C12.8948 8.48087 13.0002 8.73522 13.0002 9.00044V13.0004C13.0002 13.2657 12.8948 13.52 12.7073 13.7075C12.5197 13.8951 12.2654 14.0004 12.0002 14.0004C11.735 14.0004 11.4806 13.8951 11.2931 13.7075C11.1055 13.52 11.0002 13.2657 11.0002 13.0004V9.00044C11.0002 8.73522 11.1055 8.48087 11.2931 8.29333C11.4806 8.10579 11.735 8.00044 12.0002 8.00044Z" fill="#E60000"/>
</svg>
