<svg width="24" height="24" viewBox="0 0 24 24" fill="none" xmlns="http://www.w3.org/2000/svg">
<path d="M15.314 2C15.8444 2.00011 16.353 2.2109 16.728 2.586L21.414 7.272C21.7891 7.64699 21.9999 8.15561 22 8.686V15.314C21.9999 15.8444 21.7891 16.353 21.414 16.728L16.728 21.414C16.353 21.7891 15.8444 21.9999 15.314 22H8.686C8.15561 21.9999 7.64699 21.7891 7.272 21.414L2.586 16.728C2.2109 16.353 2.00011 15.8444 2 15.314V8.686C2.00011 8.15561 2.2109 7.64699 2.586 7.272L7.272 2.586C7.64699 2.2109 8.15561 2.00011 8.686 2H15.314ZM15.314 4H8.686L4 8.686V15.314L8.686 20H15.314L20 15.314V8.686L15.314 4ZM12 15C12.2652 15 12.5196 15.1054 12.7071 15.2929C12.8946 15.4804 13 15.7348 13 16C13 16.2652 12.8946 16.5196 12.7071 16.7071C12.5196 16.8946 12.2652 17 12 17C11.7348 17 11.4804 16.8946 11.2929 16.7071C11.1054 16.5196 11 16.2652 11 16C11 15.7348 11.1054 15.4804 11.2929 15.2929C11.4804 15.1054 11.7348 15 12 15ZM12 6C12.2652 6 12.5196 6.10536 12.7071 6.29289C12.8946 6.48043 13 6.73478 13 7V13C13 13.2652 12.8946 13.5196 12.7071 13.7071C12.5196 13.8946 12.2652 14 12 14C11.7348 14 11.4804 13.8946 11.2929 13.7071C11.1054 13.5196 11 13.2652 11 13V7C11 6.73478 11.1054 6.48043 11.2929 6.29289C11.4804 6.10536 11.7348 6 12 6Z" fill="#DB760A"/>
</svg>
